<svg width="12" height="17" viewBox="0 0 12 17" fill="none" xmlns="http://www.w3.org/2000/svg">
<path d="M11.5821 0H0.417738C0.187166 0 4.55382e-07 0.187003 4.55382e-07 0.417738V16.0632C-0.000325881 16.3766 0.174765 16.6638 0.453474 16.8071C0.732347 16.9502 1.06784 16.9252 1.32224 16.7423L5.99992 13.3891L10.6778 16.7421C10.9323 16.9247 11.2675 16.9495 11.5462 16.8064C11.8247 16.6633 12 16.3763 12 16.0632V0.417738C12 0.187003 11.8128 0 11.5821 0ZM11.1644 16.063L6.24354 12.5356C6.09799 12.4313 5.90217 12.4313 5.75678 12.5356L0.835802 16.0632V0.835475H11.1644V16.063Z" fill="white"/>
</svg>
